<svg xmlns="http://www.w3.org/2000/svg" width="100%" height="100%" viewBox="0 0 1000 1000">
  <!-- 背景渐变 -->
  <defs>
    <!-- 二进制数字样式 -->
    <style>
      .binary-text {
        font-family: 'Courier New', monospace;
        font-weight: bold;
        opacity: 0.1;
        fill: #00d4ff;
      }
      .binary-text:nth-child(even) {
        fill: #646cff;
      }
      .binary-text:nth-child(3n) {
        opacity: 0.05;
      }
      .binary-text:nth-child(5n) {
        font-size: 14px;
      }
      .binary-text:nth-child(7n) {
        font-size: 18px;
      }
      .grid-line {
        stroke: rgba(0, 212, 255, 0.1);
        stroke-width: 0.5;
      }
    </style>
    <!-- 发光效果滤镜 -->
    <filter id="glow">
      <feGaussianBlur stdDeviation="2" result="coloredBlur"/>
      <feMerge>
        <feMergeNode in="coloredBlur"/>
        <feMergeNode in="SourceGraphic"/>
      </feMerge>
    </filter>
  </defs>
  
  <!-- 网格背景 -->
  <g opacity="0.3">
    <!-- 垂直线 -->
    <line class="grid-line" x1="0" y1="0" x2="0" y2="1000"/>
    <line class="grid-line" x1="100" y1="0" x2="100" y2="1000"/>
    <line class="grid-line" x1="200" y1="0" x2="200" y2="1000"/>
    <line class="grid-line" x1="300" y1="0" x2="300" y2="1000"/>
    <line class="grid-line" x1="400" y1="0" x2="400" y2="1000"/>
    <line class="grid-line" x1="500" y1="0" x2="500" y2="1000"/>
    <line class="grid-line" x1="600" y1="0" x2="600" y2="1000"/>
    <line class="grid-line" x1="700" y1="0" x2="700" y2="1000"/>
    <line class="grid-line" x1="800" y1="0" x2="800" y2="1000"/>
    <line class="grid-line" x1="900" y1="0" x2="900" y2="1000"/>
    <line class="grid-line" x1="1000" y1="0" x2="1000" y2="1000"/>
    
    <!-- 水平线 -->
    <line class="grid-line" x1="0" y1="0" x2="1000" y2="0"/>
    <line class="grid-line" x1="0" y1="100" x2="1000" y2="100"/>
    <line class="grid-line" x1="0" y1="200" x2="1000" y2="200"/>
    <line class="grid-line" x1="0" y1="300" x2="1000" y2="300"/>
    <line class="grid-line" x1="0" y1="400" x2="1000" y2="400"/>
    <line class="grid-line" x1="0" y1="500" x2="1000" y2="500"/>
    <line class="grid-line" x1="0" y1="600" x2="1000" y2="600"/>
    <line class="grid-line" x1="0" y1="700" x2="1000" y2="700"/>
    <line class="grid-line" x1="0" y1="800" x2="1000" y2="800"/>
    <line class="grid-line" x1="0" y1="900" x2="1000" y2="900"/>
    <line class="grid-line" x1="0" y1="1000" x2="1000" y2="1000"/>
  </g>
  
  <!-- 二进制数字矩阵 -->
  <g filter="url(#glow)">
    <!-- 第一行 -->
    <text class="binary-text" x="10" y="20" font-size="12">1010101010</text>
    <text class="binary-text" x="120" y="20" font-size="12">1010101010</text>
    <text class="binary-text" x="230" y="20" font-size="12">1010101010</text>
    <text class="binary-text" x="340" y="20" font-size="12">1010101010</text>
    <text class="binary-text" x="450" y="20" font-size="12">1010101010</text>
    <text class="binary-text" x="560" y="20" font-size="12">1010101010</text>
    <text class="binary-text" x="670" y="20" font-size="12">1010101010</text>
    <text class="binary-text" x="780" y="20" font-size="12">1010101010</text>
    <text class="binary-text" x="890" y="20" font-size="12">1010101010</text>
    
    <!-- 第二行 -->
    <text class="binary-text" x="10" y="50" font-size="12">0101010101</text>
    <text class="binary-text" x="120" y="50" font-size="12">0101010101</text>
    <text class="binary-text" x="230" y="50" font-size="12">0101010101</text>
    <text class="binary-text" x="340" y="50" font-size="12">0101010101</text>
    <text class="binary-text" x="450" y="50" font-size="12">0101010101</text>
    <text class="binary-text" x="560" y="50" font-size="12">0101010101</text>
    <text class="binary-text" x="670" y="50" font-size="12">0101010101</text>
    <text class="binary-text" x="780" y="50" font-size="12">0101010101</text>
    <text class="binary-text" x="890" y="50" font-size="12">0101010101</text>
    
    <!-- 第三行 -->
    <text class="binary-text" x="10" y="80" font-size="12">1010101010</text>
    <text class="binary-text" x="120" y="80" font-size="12">1010101010</text>
    <text class="binary-text" x="230" y="80" font-size="12">1010101010</text>
    <text class="binary-text" x="340" y="80" font-size="12">1010101010</text>
    <text class="binary-text" x="450" y="80" font-size="12">1010101010</text>
    <text class="binary-text" x="560" y="80" font-size="12">1010101010</text>
    <text class="binary-text" x="670" y="80" font-size="12">1010101010</text>
    <text class="binary-text" x="780" y="80" font-size="12">1010101010</text>
    <text class="binary-text" x="890" y="80" font-size="12">1010101010</text>
    
    <!-- 第四行 -->
    <text class="binary-text" x="10" y="110" font-size="12">0101010101</text>
    <text class="binary-text" x="120" y="110" font-size="12">0101010101</text>
    <text class="binary-text" x="230" y="110" font-size="12">0101010101</text>
    <text class="binary-text" x="340" y="110" font-size="12">0101010101</text>
    <text class="binary-text" x="450" y="110" font-size="12">0101010101</text>
    <text class="binary-text" x="560" y="110" font-size="12">0101010101</text>
    <text class="binary-text" x="670" y="110" font-size="12">0101010101</text>
    <text class="binary-text" x="780" y="110" font-size="12">0101010101</text>
    <text class="binary-text" x="890" y="110" font-size="12">0101010101</text>
    
    <!-- 第五行 -->
    <text class="binary-text" x="10" y="140" font-size="12">1010101010</text>
    <text class="binary-text" x="120" y="140" font-size="12">1010101010</text>
    <text class="binary-text" x="230" y="140" font-size="12">1010101010</text>
    <text class="binary-text" x="340" y="140" font-size="12">1010101010</text>
    <text class="binary-text" x="450" y="140" font-size="12">1010101010</text>
    <text class="binary-text" x="560" y="140" font-size="12">1010101010</text>
    <text class="binary-text" x="670" y="140" font-size="12">1010101010</text>
    <text class="binary-text" x="780" y="140" font-size="12">1010101010</text>
    <text class="binary-text" x="890" y="140" font-size="12">1010101010</text>
    
    <!-- 第六行 -->
    <text class="binary-text" x="10" y="170" font-size="12">0101010101</text>
    <text class="binary-text" x="120" y="170" font-size="12">0101010101</text>
    <text class="binary-text" x="230" y="170" font-size="12">0101010101</text>
    <text class="binary-text" x="340" y="170" font-size="12">0101010101</text>
    <text class="binary-text" x="450" y="170" font-size="12">0101010101</text>
    <text class="binary-text" x="560" y="170" font-size="12">0101010101</text>
    <text class="binary-text" x="670" y="170" font-size="12">0101010101</text>
    <text class="binary-text" x="780" y="170" font-size="12">0101010101</text>
    <text class="binary-text" x="890" y="170" font-size="12">0101010101</text>
    
    <!-- 第七行 -->
    <text class="binary-text" x="10" y="200" font-size="12">1010101010</text>
    <text class="binary-text" x="120" y="200" font-size="12">1010101010</text>
    <text class="binary-text" x="230" y="200" font-size="12">1010101010</text>
    <text class="binary-text" x="340" y="200" font-size="12">1010101010</text>
    <text class="binary-text" x="450" y="200" font-size="12">1010101010</text>
    <text class="binary-text" x="560" y="200" font-size="12">1010101010</text>
    <text class="binary-text" x="670" y="200" font-size="12">1010101010</text>
    <text class="binary-text" x="780" y="200" font-size="12">1010101010</text>
    <text class="binary-text" x="890" y="200" font-size="12">1010101010</text>
    
    <!-- 第八行 -->
    <text class="binary-text" x="10" y="230" font-size="12">0101010101</text>
    <text class="binary-text" x="120" y="230" font-size="12">0101010101</text>
    <text class="binary-text" x="230" y="230" font-size="12">0101010101</text>
    <text class="binary-text" x="340" y="230" font-size="12">0101010101</text>
    <text class="binary-text" x="450" y="230" font-size="12">0101010101</text>
    <text class="binary-text" x="560" y="230" font-size="12">0101010101</text>
    <text class="binary-text" x="670" y="230" font-size="12">0101010101</text>
    <text class="binary-text" x="780" y="230" font-size="12">0101010101</text>
    <text class="binary-text" x="890" y="230" font-size="12">0101010101</text>
    
    <!-- 第九行 -->
    <text class="binary-text" x="10" y="260" font-size="12">1010101010</text>
    <text class="binary-text" x="120" y="260" font-size="12">1010101010</text>
    <text class="binary-text" x="230" y="260" font-size="12">1010101010</text>
    <text class="binary-text" x="340" y="260" font-size="12">1010101010</text>
    <text class="binary-text" x="450" y="260" font-size="12">1010101010</text>
    <text class="binary-text" x="560" y="260" font-size="12">1010101010</text>
    <text class="binary-text" x="670" y="260" font-size="12">1010101010</text>
    <text class="binary-text" x="780" y="260" font-size="12">1010101010</text>
    <text class="binary-text" x="890" y="260" font-size="12">1010101010</text>
    
    <!-- 第十行 -->
    <text class="binary-text" x="10" y="290" font-size="12">0101010101</text>
    <text class="binary-text" x="120" y="290" font-size="12">0101010101</text>
    <text class="binary-text" x="230" y="290" font-size="12">0101010101</text>
    <text class="binary-text" x="340" y="290" font-size="12">0101010101</text>
    <text class="binary-text" x="450" y="290" font-size="12">0101010101</text>
    <text class="binary-text" x="560" y="290" font-size="12">0101010101</text>
    <text class="binary-text" x="670" y="290" font-size="12">0101010101</text>
    <text class="binary-text" x="780" y="290" font-size="12">0101010101</text>
    <text class="binary-text" x="890" y="290" font-size="12">0101010101</text>
    
    <!-- 第十一行 -->
    <text class="binary-text" x="10" y="320" font-size="12">1010101010</text>
    <text class="binary-text" x="120" y="320" font-size="12">1010101010</text>
    <text class="binary-text" x="230" y="320" font-size="12">1010101010</text>
    <text class="binary-text" x="340" y="320" font-size="12">1010101010</text>
    <text class="binary-text" x="450" y="320" font-size="12">1010101010</text>
    <text class="binary-text" x="560" y="320" font-size="12">1010101010</text>
    <text class="binary-text" x="670" y="320" font-size="12">1010101010</text>
    <text class="binary-text" x="780" y="320" font-size="12">1010101010</text>
    <text class="binary-text" x="890" y="320" font-size="12">1010101010</text>
    
    <!-- 第十二行 -->
    <text class="binary-text" x="10" y="350" font-size="12">0101010101</text>
    <text class="binary-text" x="120" y="350" font-size="12">0101010101</text>
    <text class="binary-text" x="230" y="350" font-size="12">0101010101</text>
    <text class="binary-text" x="340" y="350" font-size="12">0101010101</text>
    <text class="binary-text" x="450" y="350" font-size="12">0101010101</text>
    <text class="binary-text" x="560" y="350" font-size="12">0101010101</text>
    <text class="binary-text" x="670" y="350" font-size="12">0101010101</text>
    <text class="binary-text" x="780" y="350" font-size="12">0101010101</text>
    <text class="binary-text" x="890" y="350" font-size="12">0101010101</text>
    
    <!-- 第十三行 -->
    <text class="binary-text" x="10" y="380" font-size="12">1010101010</text>
    <text class="binary-text" x="120" y="380" font-size="12">1010101010</text>
    <text class="binary-text" x="230" y="380" font-size="12">1010101010</text>
    <text class="binary-text" x="340" y="380" font-size="12">1010101010</text>
    <text class="binary-text" x="450" y="380" font-size="12">1010101010</text>
    <text class="binary-text" x="560" y="380" font-size="12">1010101010</text>
    <text class="binary-text" x="670" y="380" font-size="12">1010101010</text>
    <text class="binary-text" x="780" y="380" font-size="12">1010101010</text>
    <text class="binary-text" x="890" y="380" font-size="12">1010101010</text>
    
    <!-- 第十四行 -->
    <text class="binary-text" x="10" y="410" font-size="12">0101010101</text>
    <text class="binary-text" x="120" y="410" font-size="12">0101010101</text>
    <text class="binary-text" x="230" y="410" font-size="12">0101010101</text>
    <text class="binary-text" x="340" y="410" font-size="12">0101010101</text>
    <text class="binary-text" x="450" y="410" font-size="12">0101010101</text>
    <text class="binary-text" x="560" y="410" font-size="12">0101010101</text>
    <text class="binary-text" x="670" y="410" font-size="12">0101010101</text>
    <text class="binary-text" x="780" y="410" font-size="12">0101010101</text>
    <text class="binary-text" x="890" y="410" font-size="12">0101010101</text>
    
    <!-- 第十五行 -->
    <text class="binary-text" x="10" y="440" font-size="12">1010101010</text>
    <text class="binary-text" x="120" y="440" font-size="12">1010101010</text>
    <text class="binary-text" x="230" y="440" font-size="12">1010101010</text>
    <text class="binary-text" x="340" y="440" font-size="12">1010101010</text>
    <text class="binary-text" x="450" y="440" font-size="12">1010101010</text>
    <text class="binary-text" x="560" y="440" font-size="12">1010101010</text>
    <text class="binary-text" x="670" y="440" font-size="12">1010101010</text>
    <text class="binary-text" x="780" y="440" font-size="12">1010101010</text>
    <text class="binary-text" x="890" y="440" font-size="12">1010101010</text>
    
    <!-- 第十六行 -->
    <text class="binary-text" x="10" y="470" font-size="12">0101010101</text>
    <text class="binary-text" x="120" y="470" font-size="12">0101010101</text>
    <text class="binary-text" x="230" y="470" font-size="12">0101010101</text>
    <text class="binary-text" x="340" y="470" font-size="12">0101010101</text>
    <text class="binary-text" x="450" y="470" font-size="12">0101010101</text>
    <text class="binary-text" x="560" y="470" font-size="12">0101010101</text>
    <text class="binary-text" x="670" y="470" font-size="12">0101010101</text>
    <text class="binary-text" x="780" y="470" font-size="12">0101010101</text>
    <text class="binary-text" x="890" y="470" font-size="12">0101010101</text>
    
    <!-- 第十七行 -->
    <text class="binary-text" x="10" y="500" font-size="12">1010101010</text>
    <text class="binary-text" x="120" y="500" font-size="12">1010101010</text>
    <text class="binary-text" x="230" y="500" font-size="12">1010101010</text>
    <text class="binary-text" x="340" y="500" font-size="12">1010101010</text>
    <text class="binary-text" x="450" y="500" font-size="12">1010101010</text>
    <text class="binary-text" x="560" y="500" font-size="12">1010101010</text>
    <text class="binary-text" x="670" y="500" font-size="12">1010101010</text>
    <text class="binary-text" x="780" y="500" font-size="12">1010101010</text>
    <text class="binary-text" x="890" y="500" font-size="12">1010101010</text>
    
    <!-- 第十八行 -->
    <text class="binary-text" x="10" y="530" font-size="12">0101010101</text>
    <text class="binary-text" x="120" y="530" font-size="12">0101010101</text>
    <text class="binary-text" x="230" y="530" font-size="12">0101010101</text>
    <text class="binary-text" x="340" y="530" font-size="12">0101010101</text>
    <text class="binary-text" x="450" y="530" font-size="12">0101010101</text>
    <text class="binary-text" x="560" y="530" font-size="12">0101010101</text>
    <text class="binary-text" x="670" y="530" font-size="12">0101010101</text>
    <text class="binary-text" x="780" y="530" font-size="12">0101010101</text>
    <text class="binary-text" x="890" y="530" font-size="12">0101010101</text>
    
    <!-- 第十九行 -->
    <text class="binary-text" x="10" y="560" font-size="12">1010101010</text>
    <text class="binary-text" x="120" y="560" font-size="12">1010101010</text>
    <text class="binary-text" x="230" y="560" font-size="12">1010101010</text>
    <text class="binary-text" x="340" y="560" font-size="12">1010101010</text>
    <text class="binary-text" x="450" y="560" font-size="12">1010101010</text>
    <text class="binary-text" x="560" y="560" font-size="12">1010101010</text>
    <text class="binary-text" x="670" y="560" font-size="12">1010101010</text>
    <text class="binary-text" x="780" y="560" font-size="12">1010101010</text>
    <text class="binary-text" x="890" y="560" font-size="12">1010101010</text>
    
    <!-- 第二十行 -->
    <text class="binary-text" x="10" y="590" font-size="12">0101010101</text>
    <text class="binary-text" x="120" y="590" font-size="12">0101010101</text>
    <text class="binary-text" x="230" y="590" font-size="12">0101010101</text>
    <text class="binary-text" x="340" y="590" font-size="12">0101010101</text>
    <text class="binary-text" x="450" y="590" font-size="12">0101010101</text>
    <text class="binary-text" x="560" y="590" font-size="12">0101010101</text>
    <text class="binary-text" x="670" y="590" font-size="12">0101010101</text>
    <text class="binary-text" x="780" y="590" font-size="12">0101010101</text>
    <text class="binary-text" x="890" y="590" font-size="12">0101010101</text>
    
    <!-- 第二十一行 -->
    <text class="binary-text" x="10" y="620" font-size="12">1010101010</text>
    <text class="binary-text" x="120" y="620" font-size="12">1010101010</text>
    <text class="binary-text" x="230" y="620" font-size="12">1010101010</text>
    <text class="binary-text" x="340" y="620" font-size="12">1010101010</text>
    <text class="binary-text" x="450" y="620" font-size="12">1010101010</text>
    <text class="binary-text" x="560" y="620" font-size="12">1010101010</text>
    <text class="binary-text" x="670" y="620" font-size="12">1010101010</text>
    <text class="binary-text" x="780" y="620" font-size="12">1010101010</text>
    <text class="binary-text" x="890" y="620" font-size="12">1010101010</text>
    
    <!-- 第二十二行 -->
    <text class="binary-text" x="10" y="650" font-size="12">0101010101</text>
    <text class="binary-text" x="120" y="650" font-size="12">0101010101</text>
    <text class="binary-text" x="230" y="650" font-size="12">0101010101</text>
    <text class="binary-text" x="340" y="650" font-size="12">0101010101</text>
    <text class="binary-text" x="450" y="650" font-size="12">0101010101</text>
    <text class="binary-text" x="560" y="650" font-size="12">0101010101</text>
    <text class="binary-text" x="670" y="650" font-size="12">0101010101</text>
    <text class="binary-text" x="780" y="650" font-size="12">0101010101</text>
    <text class="binary-text" x="890" y="650" font-size="12">0101010101</text>
    
    <!-- 第二十三行 -->
    <text class="binary-text" x="10" y="680" font-size="12">1010101010</text>
    <text class="binary-text" x="120" y="680" font-size="12">1010101010</text>
    <text class="binary-text" x="230" y="680" font-size="12">1010101010</text>
    <text class="binary-text" x="340" y="680" font-size="12">1010101010</text>
    <text class="binary-text" x="450" y="680" font-size="12">1010101010</text>
    <text class="binary-text" x="560" y="680" font-size="12">1010101010</text>
    <text class="binary-text" x="670" y="680" font-size="12">1010101010</text>
    <text class="binary-text" x="780" y="680" font-size="12">1010101010</text>
    <text class="binary-text" x="890" y="680" font-size="12">1010101010</text>
    
    <!-- 第二十四行 -->
    <text class="binary-text" x="10" y="710" font-size="12">0101010101</text>
    <text class="binary-text" x="120" y="710" font-size="12">0101010101</text>
    <text class="binary-text" x="230" y="710" font-size="12">0101010101</text>
    <text class="binary-text" x="340" y="710" font-size="12">0101010101</text>
    <text class="binary-text" x="450" y="710" font-size="12">0101010101</text>
    <text class="binary-text" x="560" y="710" font-size="12">0101010101</text>
    <text class="binary-text" x="670" y="710" font-size="12">0101010101</text>
    <text class="binary-text" x="780" y="710" font-size="12">0101010101</text>
    <text class="binary-text" x="890" y="710" font-size="12">0101010101</text>
    
    <!-- 第二十五行 -->
    <text class="binary-text" x="10" y="740" font-size="12">1010101010</text>
    <text class="binary-text" x="120" y="740" font-size="12">1010101010</text>
    <text class="binary-text" x="230" y="740" font-size="12">1010101010</text>
    <text class="binary-text" x="340" y="740" font-size="12">1010101010</text>
    <text class="binary-text" x="450" y="740" font-size="12">1010101010</text>
    <text class="binary-text" x="560" y="740" font-size="12">1010101010</text>
    <text class="binary-text" x="670" y="740" font-size="12">1010101010</text>
    <text class="binary-text" x="780" y="740" font-size="12">1010101010</text>
    <text class="binary-text" x="890" y="740" font-size="12">1010101010</text>
    
    <!-- 第二十六行 -->
    <text class="binary-text" x="10" y="770" font-size="12">0101010101</text>
    <text class="binary-text" x="120" y="770" font-size="12">0101010101</text>
    <text class="binary-text" x="230" y="770" font-size="12">0101010101</text>
    <text class="binary-text" x="340" y="770" font-size="12">0101010101</text>
    <text class="binary-text" x="450" y="770" font-size="12">0101010101</text>
    <text class="binary-text" x="560" y="770" font-size="12">0101010101</text>
    <text class="binary-text" x="670" y="770" font-size="12">0101010101</text>
    <text class="binary-text" x="780" y="770" font-size="12">0101010101</text>
    <text class="binary-text" x="890" y="770" font-size="12">0101010101</text>
    
    <!-- 第二十七行 -->
    <text class="binary-text" x="10" y="800" font-size="12">1010101010</text>
    <text class="binary-text" x="120" y="800" font-size="12">1010101010</text>
    <text class="binary-text" x="230" y="800" font-size="12">1010101010</text>
    <text class="binary-text" x="340" y="800" font-size="12">1010101010</text>
    <text class="binary-text" x="450" y="800" font-size="12">1010101010</text>
    <text class="binary-text" x="560" y="800" font-size="12">1010101010</text>
    <text class="binary-text" x="670" y="800" font-size="12">1010101010</text>
    <text class="binary-text" x="780" y="800" font-size="12">1010101010</text>
    <text class="binary-text" x="890" y="800" font-size="12">1010101010</text>
    
    <!-- 第二十八行 -->
    <text class="binary-text" x="10" y="830" font-size="12">0101010101</text>
    <text class="binary-text" x="120" y="830" font-size="12">0101010101</text>
    <text class="binary-text" x="230" y="830" font-size="12">0101010101</text>
    <text class="binary-text" x="340" y="830" font-size="12">0101010101</text>
    <text class="binary-text" x="450" y="830" font-size="12">0101010101</text>
    <text class="binary-text" x="560" y="830" font-size="12">0101010101</text>
    <text class="binary-text" x="670" y="830" font-size="12">0101010101</text>
    <text class="binary-text" x="780" y="830" font-size="12">0101010101</text>
    <text class="binary-text" x="890" y="830" font-size="12">0101010101</text>
    
    <!-- 第二十九行 -->
    <text class="binary-text" x="10" y="860" font-size="12">1010101010</text>
    <text class="binary-text" x="120" y="860" font-size="12">1010101010</text>
    <text class="binary-text" x="230" y="860" font-size="12">1010101010</text>
    <text class="binary-text" x="340" y="860" font-size="12">1010101010</text>
    <text class="binary-text" x="450" y="860" font-size="12">1010101010</text>
    <text class="binary-text" x="560" y="860" font-size="12">1010101010</text>
    <text class="binary-text" x="670" y="860" font-size="12">1010101010</text>
    <text class="binary-text" x="780" y="860" font-size="12">1010101010</text>
    <text class="binary-text" x="890" y="860" font-size="12">1010101010</text>
    
    <!-- 第三十行 -->
    <text class="binary-text" x="10" y="890" font-size="12">0101010101</text>
    <text class="binary-text" x="120" y="890" font-size="12">0101010101</text>
    <text class="binary-text" x="230" y="890" font-size="12">0101010101</text>
    <text class="binary-text" x="340" y="890" font-size="12">0101010101</text>
    <text class="binary-text" x="450" y="890" font-size="12">0101010101</text>
    <text class="binary-text" x="560" y="890" font-size="12">0101010101</text>
    <text class="binary-text" x="670" y="890" font-size="12">0101010101</text>
    <text class="binary-text" x="780" y="890" font-size="12">0101010101</text>
    <text class="binary-text" x="890" y="890" font-size="12">0101010101</text>
    
    <!-- 第三十一行 -->
    <text class="binary-text" x="10" y="920" font-size="12">1010101010</text>
    <text class="binary-text" x="120" y="920" font-size="12">1010101010</text>
    <text class="binary-text" x="230" y="920" font-size="12">1010101010</text>
    <text class="binary-text" x="340" y="920" font-size="12">1010101010</text>
    <text class="binary-text" x="450" y="920" font-size="12">1010101010</text>
    <text class="binary-text" x="560" y="920" font-size="12">1010101010</text>
    <text class="binary-text" x="670" y="920" font-size="12">1010101010</text>
    <text class="binary-text" x="780" y="920" font-size="12">1010101010</text>
    <text class="binary-text" x="890" y="920" font-size="12">1010101010</text>
    
    <!-- 第三十二行 -->
    <text class="binary-text" x="10" y="950" font-size="12">0101010101</text>
    <text class="binary-text" x="120" y="950" font-size="12">0101010101</text>
    <text class="binary-text" x="230" y="950" font-size="12">0101010101</text>
    <text class="binary-text" x="340" y="950" font-size="12">0101010101</text>
    <text class="binary-text" x="450" y="950" font-size="12">0101010101</text>
    <text class="binary-text" x="560" y="950" font-size="12">0101010101</text>
    <text class="binary-text" x="670" y="950" font-size="12">0101010101</text>
    <text class="binary-text" x="780" y="950" font-size="12">0101010101</text>
    <text class="binary-text" x="890" y="950" font-size="12">0101010101</text>
    
    <!-- 第三十三行 -->
    <text class="binary-text" x="10" y="980" font-size="12">1010101010</text>
    <text class="binary-text" x="120" y="980" font-size="12">1010101010</text>
    <text class="binary-text" x="230" y="980" font-size="12">1010101010</text>
    <text class="binary-text" x="340" y="980" font-size="12">1010101010</text>
    <text class="binary-text" x="450" y="980" font-size="12">1010101010</text>
    <text class="binary-text" x="560" y="980" font-size="12">1010101010</text>
    <text class="binary-text" x="670" y="980" font-size="12">1010101010</text>
    <text class="binary-text" x="780" y="980" font-size="12">1010101010</text>
    <text class="binary-text" x="890" y="980" font-size="12">1010101010</text>
  </g>
  
  <!-- 动态效果：浮动的二进制数字 -->
  <g opacity="0.5">
    <text class="binary-text" x="50" y="150" font-size="24">101010</text>
    <text class="binary-text" x="400" y="350" font-size="32">010101</text>
    <text class="binary-text" x="750" y="550" font-size="28">101010</text>
    <text class="binary-text" x="200" y="750" font-size="36">010101</text>
    <text class="binary-text" x="600" y="950" font-size="20">101010</text>
  </g>
</svg>